<?xml version="1.0" encoding="UTF-8"?>
<svg width="409px" height="409px" viewBox="0 0 409 409" version="1.1" xmlns="http://www.w3.org/2000/svg" xmlns:xlink="http://www.w3.org/1999/xlink">
    <title>SUBMARK-NEKTARO</title>
    <g id="SUBMARK-NEKTARO" stroke="none" stroke-width="1" fill="none" fill-rule="evenodd">
        <path d="M409,204.5 C409,316.975 316.975,409 204.5,409 C91.207,409 0,316.975 0,204.5 C0,91.207 91.207,0 204.5,0 C316.975,0 409,91.207 409,204.5 Z M365,206 C365,117.712082 293.879177,47 206,47 C118.120823,47 47,117.712082 47,206 C47,294.287918 117.712082,365 206,365 C294.287918,365 365,294.287918 365,206 Z M66.0162401,203.411591 C65.6055667,183.64628 73.0016606,161 86.1530041,161 C93.1384246,161 167.520585,190.234832 167.520585,190.234832 C181.493138,195.999857 181.493138,212.470378 167.520585,216.588008 C167.520585,216.588008 91.9062674,245 86.1530041,245 C73.002003,245 65.6056351,223.177246 66.0162401,203.411935 L66.0162401,203.411591 Z M104.84229,301.414322 C90.8255406,288.117284 80.5193596,266.763186 89.1762081,258.301862 C93.2986805,253.063228 167.915431,221.636125 167.915431,221.636125 C181.93218,215.592322 193.474072,227.277343 187.290364,240.572702 C187.290364,240.572702 153.486777,312.695415 149.775865,316.724617 C139.882962,325.58819 118.446793,315.112668 104.840916,301.412979 L104.84229,301.414322 Z M107.585678,104.806865 C120.882716,90.8164681 142.236814,80.5296637 150.698138,89.1702365 C155.936772,93.2849583 187.363875,167.761422 187.363875,167.761422 C193.407678,182.162948 181.722657,193.684855 168.427298,187.099928 C168.427298,187.099928 96.3045846,153.359896 92.2753827,149.65596 C83.4118102,139.781657 93.8873321,118.38579 107.587021,104.805493 L107.585678,104.806865 Z M203.411591,342.98376 C183.64628,343.394433 161,335.998339 161,322.846996 C161,315.861575 190.234832,241.479415 190.234832,241.479415 C195.999857,227.506862 211.645823,227.506862 216.588008,241.479415 C216.588008,241.479415 245,317.093733 245,322.846996 C245,335.997997 223.177246,343.394365 203.411935,342.98376 L203.411591,342.98376 Z M205.588409,66.0161955 C225.35372,65.6066482 248,72.9824617 248,86.0977436 C248,93.0640098 218.765168,167.242211 218.765168,167.242211 C213.000143,181.58593 196.529622,181.58593 192.411992,167.242211 C192.411992,167.242211 164,92.2450517 164,86.0977436 C164,72.9828032 185.822754,65.6067165 205.588065,66.0161955 L205.588409,66.0161955 Z M304.193135,105.08564 C318.183532,118.740373 328.470336,140.668905 319.829763,149.357842 C315.715042,154.737397 241.238578,187.009901 241.238578,187.009901 C226.837052,194.043112 215.315145,181.216932 221.900072,167.563923 C221.900072,167.563923 255.640104,93.5010807 259.34404,89.3634918 C269.218343,80.2614857 290.61421,91.0188032 304.194507,105.087019 L304.193135,105.08564 Z M303.91436,304.15771 C290.259627,318.174459 268.331095,328.48064 259.642158,319.823792 C254.262603,315.70132 221.990099,241.084569 221.990099,241.084569 C214.956888,227.06782 227.783068,215.525928 241.436077,221.709636 C241.436077,221.709636 315.498919,255.513223 319.636508,259.224135 C328.738514,269.117038 317.981197,290.553207 303.912981,304.159084 L303.91436,304.15771 Z M369.298828,47 L365.919922,47 L365.919922,35.6621094 L363.341797,35.6621094 L363.341797,32.7226562 L371.857422,32.7226562 L371.857422,35.6621094 L369.298828,35.6621094 L369.298828,47 Z M380.270833,47 L377.809896,37.4003906 L377.731771,37.4003906 C377.764323,37.8300781 377.791992,38.2451172 377.814779,38.6455078 C377.837565,39.0458984 377.855469,39.4251302 377.86849,39.7832031 C377.88151,40.141276 377.888021,40.4798177 377.888021,40.7988281 L377.888021,47 L374.714193,47 L374.714193,32.7226562 L379.372396,32.7226562 L381.589193,41.296875 L381.647786,41.296875 L383.874349,32.7226562 L388.49349,32.7226562 L388.49349,47 L385.231771,47 L385.231771,40.7402344 C385.231771,40.3821615 385.238281,40.0257161 385.251302,39.6708984 C385.264323,39.3160807 385.280599,38.9498698 385.30013,38.5722656 C385.319661,38.1946615 385.342448,37.8040365 385.36849,37.4003906 L385.290365,37.4003906 L382.790365,47 L380.270833,47 Z" fill="#068C0A" fill-rule="nonzero"></path>
    </g>
</svg>