<?xml version="1.0" encoding="UTF-8"?>
<svg width="1283.67578px" height="220.458984px" viewBox="0 0 1283.67578 220.458984" version="1.1" xmlns="http://www.w3.org/2000/svg" xmlns:xlink="http://www.w3.org/1999/xlink">
    <title>NEKTARO-WORDMARK</title>
    <g id="NEKTARO-WORDMARK" stroke="none" stroke-width="1" fill="none" fill-rule="evenodd">
        <path d="M161.425781,217.529297 L101.953125,217.529297 L46.1425781,84.375 L44.9707031,84.375 C45.5566406,92.1875 46.0205078,99.4384766 46.3623047,106.12793 C46.7041016,112.817383 46.9482422,118.87207 47.0947266,124.291992 C47.2412109,129.711914 47.3144531,134.472656 47.3144531,138.574219 L47.3144531,217.529297 L0,217.529297 L0,3.36914062 L59.0332031,3.36914062 L114.550781,132.861328 L115.722656,132.861328 C115.332031,125.634766 114.990234,118.896484 114.697266,112.646484 C114.404297,106.396484 114.160156,100.634766 113.964844,95.3613281 C113.769531,90.0878906 113.671875,85.3027344 113.671875,81.0058594 L113.671875,3.36914062 L161.425781,3.36914062 L161.425781,217.529297 Z" id="Path" fill="#068C0A" fill-rule="nonzero"></path>
        <polygon id="Path" fill="#068C0A" fill-rule="nonzero" transform="translate(268.291, 110.4492) scale(1, -1) translate(-268.291, -110.4492)" points="319.853516 217.529297 216.728516 217.529297 216.728516 3.36914062 319.853516 3.36914062 319.853516 46.5820312 267.705078 46.5820312 267.705078 85.2539062 316.044922 85.2539062 316.044922 128.466797 267.705078 128.466797 267.705078 173.730469 319.853516 173.730469"></polygon>
        <path d="M520.175781,217.529297 L463.779297,217.529297 L432.578125,137.695312 L420.566406,145.898438 L420.566406,217.529297 L369.589844,217.529297 L369.589844,3.36914062 L420.566406,3.36914062 L420.566406,96.3867188 C421.445312,92.0898438 422.885742,87.6953125 424.887695,83.203125 C426.889648,78.7109375 429.160156,73.9746094 431.699219,68.9941406 L466.123047,3.36914062 L521.054688,3.36914062 L469.492188,99.3164062 L520.175781,217.529297 Z" id="Path" fill="#068C0A" fill-rule="nonzero"></path>
        <polygon id="Path" fill="#068C0A" fill-rule="nonzero" points="631.875 217.529297 581.191406 217.529297 581.191406 47.4609375 542.519531 47.4609375 542.519531 3.36914062 670.253906 3.36914062 670.253906 47.4609375 631.875 47.4609375"></polygon>
        <path d="M813.007812,217.529297 L804.951172,175.78125 L758.662109,175.78125 L750.605469,217.529297 L695.380859,217.529297 L747.529297,3.36914062 L814.765625,3.36914062 L867.646484,217.529297 L813.007812,217.529297 Z M797.041016,131.982422 L788.398438,84.0820312 C787.421875,78.7109375 786.518555,73.4863281 785.688477,68.4082031 C784.858398,63.3300781 784.125977,58.4716797 783.491211,53.8330078 C782.856445,49.1943359 782.294922,44.8730469 781.806641,40.8691406 C781.416016,44.6777344 780.90332,48.8769531 780.268555,53.4667969 C779.633789,58.0566406 778.876953,62.8662109 777.998047,67.8955078 C777.119141,72.9248047 776.191406,78.125 775.214844,83.4960938 L766.132812,131.982422 L797.041016,131.982422 Z" id="Shape" fill="#068C0A" fill-rule="nonzero"></path>
        <path d="M962.646484,3.36914062 C979.248047,3.36914062 993.066406,5.71289062 1004.10156,10.4003906 C1015.13672,15.0878906 1023.38867,22.0947266 1028.85742,31.4208984 C1034.32617,40.7470703 1037.06055,52.4902344 1037.06055,66.6503906 C1037.06055,74.9511719 1035.98633,82.6171875 1033.83789,89.6484375 C1031.68945,96.6796875 1028.4668,103.076172 1024.16992,108.837891 C1019.87305,114.599609 1014.45312,119.726562 1007.91016,124.21875 L1052.58789,217.529297 L996.484375,217.529297 L962.939453,137.109375 L956.347656,137.109375 L956.347656,217.529297 L905.371094,217.529297 L905.371094,3.36914062 L962.646484,3.36914062 Z M962.060547,45.9960938 L956.347656,45.9960938 L956.347656,97.5585938 L961.767578,97.5585938 C969.384766,97.5585938 975.097656,95.2148438 978.90625,90.5273438 C982.714844,85.8398438 984.619141,78.7597656 984.619141,69.2871094 C984.619141,61.4746094 982.739258,55.6396484 978.979492,51.7822266 C975.219727,47.9248047 969.580078,45.9960938 962.060547,45.9960938 Z" id="Shape" fill="#068C0A" fill-rule="nonzero"></path>
        <path d="M1245.73242,110.15625 C1245.73242,128.125 1243.99902,143.969727 1240.53223,157.69043 C1237.06543,171.411133 1231.88965,182.93457 1225.00488,192.260742 C1218.12012,201.586914 1209.62402,208.618164 1199.5166,213.354492 C1189.40918,218.09082 1177.71484,220.458984 1164.43359,220.458984 C1151.25,220.458984 1139.58008,218.066406 1129.42383,213.28125 C1119.26758,208.496094 1110.72266,201.44043 1103.78906,192.114258 C1096.85547,182.788086 1091.63086,171.240234 1088.11523,157.470703 C1084.59961,143.701172 1082.8418,127.832031 1082.8418,109.863281 C1082.8418,86.0351562 1085.94238,65.9667969 1092.14355,49.6582031 C1098.34473,33.3496094 1107.52441,20.9960938 1119.68262,12.5976562 C1131.84082,4.19921875 1146.75781,0 1164.43359,0 C1182.20703,0 1197.12402,4.15039063 1209.18457,12.4511719 C1221.24512,20.7519531 1230.35156,33.0810547 1236.50391,49.4384766 C1242.65625,65.7958984 1245.73242,86.0351562 1245.73242,110.15625 Z M1135.86914,110.15625 C1135.86914,124.707031 1136.94336,136.865234 1139.0918,146.630859 C1141.24023,156.396484 1144.43848,163.696289 1148.68652,168.530273 C1152.93457,173.364258 1158.18359,175.78125 1164.43359,175.78125 C1170.87891,175.78125 1176.17676,173.4375 1180.32715,168.75 C1184.47754,164.0625 1187.55371,156.860352 1189.55566,147.143555 C1191.55762,137.426758 1192.55859,125.097656 1192.55859,110.15625 C1192.55859,87.5 1190.23926,70.7763672 1185.60059,59.9853516 C1180.96191,49.1943359 1173.90625,43.7988281 1164.43359,43.7988281 C1158.18359,43.7988281 1152.93457,46.2646484 1148.68652,51.1962891 C1144.43848,56.1279297 1141.24023,63.5009766 1139.0918,73.3154297 C1136.94336,83.1298828 1135.86914,95.4101562 1135.86914,110.15625 Z" id="Shape" fill="#068C0A" fill-rule="nonzero"></path>
        <path d="M1261.9082,21.1230469 L1261.9082,0 L1269.87695,0 L1272.83594,11.6894531 L1276,0 L1283.67578,0 L1283.67578,21.1230469 L1277.99219,21.1230469 L1277.99219,11.4550781 C1277.99219,10.7910156 1278.00684,10.1904297 1278.03613,9.65332031 C1278.06543,9.11621094 1278.10938,8.6328125 1278.16797,8.203125 L1277.93359,8.203125 L1274.38867,21.1230469 L1271.01953,21.1230469 L1267.67969,8.203125 L1267.47461,8.203125 C1267.51367,8.75 1267.54297,9.29199219 1267.5625,9.82910156 C1267.58203,10.3662109 1267.5918,10.9082031 1267.5918,11.4550781 L1267.5918,21.1230469 L1261.9082,21.1230469 Z M1250.07227,21.1230469 L1250.07227,5.56640625 L1246,5.56640625 L1246,0 L1260.29688,0 L1260.29688,5.56640625 L1256.19531,5.56640625 L1256.19531,21.1230469 L1250.07227,21.1230469 Z" id="Shape" fill="#068C0A" fill-rule="nonzero"></path>
    </g>
</svg>