<?xml version="1.0" encoding="UTF-8"?>
<svg width="152px" height="141px" viewBox="0 0 152 141" version="1.1" xmlns="http://www.w3.org/2000/svg" xmlns:xlink="http://www.w3.org/1999/xlink">
    <title>Group</title>
    <g id="App-Screens" stroke="none" stroke-width="1" fill="none" fill-rule="evenodd">
        <g id="screen/app/dashboard/offers-empty-state" transform="translate(-124, -167)">
            <g id="Group" transform="translate(124, 167)">
                <circle id="Oval" fill-opacity="0.308429851" fill="#C9E4CA" cx="84.5" cy="73.5" r="67.5"></circle>
                <g id="np_leafs_3544844_000000" fill="#2B9348" fill-rule="nonzero">
                    <path d="M111.865066,69.6718313 C125.757093,55.7028474 131.197273,35.4144396 126.147139,16.369197 L125.917344,15.0052963 L124.723433,14.6855521 C106.859333,9.92929341 87.7969604,14.3907863 73.8998184,26.5810589 C71.9715851,23.9881893 69.8484568,21.545088 67.5455238,19.2719626 C50.8605131,2.6746816 26.6175646,-3.81996225 3.87341528,2.21552895 L2.6795041,2.53527313 L2.27486669,3.81424986 C-2.57078167,21.7493406 0.401623512,40.8943433 10.4573893,56.517044 C20.5082955,72.1397448 36.7029995,82.7705994 55.0313181,85.7889845 C53.4427445,89.5059467 52.3536853,93.4229408 51.7943212,97.4297191 C51.7943212,98.6087822 52.7484501,99.5630523 53.9274244,99.5630523 C55.1013602,99.5630523 56.0555402,98.6088205 56.0555402,97.4297191 C56.7249356,93.6378089 57.8438685,89.9356828 59.3825674,86.4085208 C61.5156706,86.6233505 63.8385536,86.7482426 66.0964715,86.7482426 C70.51243,86.7332543 74.9084386,86.2686263 79.2301467,85.3643898 C80.1043481,85.3643898 80.9785752,85.1945289 81.8328395,85.0646232 C85.1348015,89.6259658 96.0701527,106.277731 96.0701527,125.871655 C96.0701527,127.045717 97.0242816,128 98.2032559,128 C99.3821791,128 100.336359,127.045768 100.336359,125.871655 C100.336359,106.681888 90.8700102,90.6102663 86.4583997,84.1706185 C96.0746286,81.7075651 104.857055,76.7016502 111.865092,69.6721383 L111.865066,69.6718313 Z M81.2726825,78.2000482 L55.2662153,53.2344224 L51.9441755,26.540899 C51.8742397,25.9763459 51.5845021,25.4617624 51.1349135,25.1170142 C50.6853249,24.7672908 50.1158324,24.6124195 49.5563148,24.6873548 C48.9918225,24.7523025 48.4772945,25.047067 48.1325835,25.491716 C47.7828978,25.9413531 47.6280432,26.5108942 47.7029704,27.0754729 L50.3905781,48.5239127 L27.8561584,26.7109645 C27.4565213,26.2713163 26.8970292,26.0165185 26.3026249,26.0065297 C25.7081695,25.9965384 25.138677,26.2313483 24.7290137,26.6610077 C24.3193888,27.0906671 24.1045823,27.6701971 24.1395457,28.2597286 C24.1745143,28.8542482 24.4542552,29.4038117 24.9138443,29.7785135 L61.7699805,65.4299899 L40.6435624,64.7455327 C39.4646264,64.7455327 38.5104592,65.6997644 38.5104592,66.8788659 C38.5104592,67.443419 38.7352535,67.9829809 39.1348906,68.3826867 C39.5345278,68.7823925 40.0790318,69.0071855 40.6435368,69.0071855 L66.4607359,69.8365251 L78.2899955,81.2424396 C77.7155155,81.2424396 77.1160598,81.4123005 76.541567,81.4572694 L76.541567,81.5871622 C56.0405011,85.1693203 35.1097453,78.1449243 20.9171915,62.9166599 C6.72463769,47.6883956 1.18470771,26.3212987 6.1951984,6.11730326 C27.1361849,0.981444301 49.2357994,7.13149344 64.5166451,22.3398441 C79.1184273,37.0135442 85.4077569,58.020737 81.2758285,78.3053079 L81.2726825,78.2000482 Z M86.0533659,56.2169961 L92.3226177,50.5865568 L108.033153,51.4158965 L108.163032,51.4158965 L108.158037,51.4208922 C109.331973,51.4208922 110.29114,50.4666604 110.29114,49.287559 C110.29114,48.1084576 109.332011,47.1542258 108.158037,47.1542258 L96.7084646,46.5597063 L113.76306,31.2516338 C114.302576,30.9219008 114.667237,30.3723373 114.762153,29.7528009 C114.857067,29.1283022 114.672235,28.4988026 114.257612,28.024136 C113.84299,27.5494694 113.238531,27.284734 112.609061,27.2997108 C111.979629,27.3146991 111.385174,27.6044653 110.990563,28.0940704 L85.114537,51.2499442 C83.4111236,43.7459319 80.4137811,36.5967077 76.2675297,30.1212486 C88.7961862,18.9401782 106.010764,14.6238875 122.335142,18.565438 C125.522265,31.6301853 123.419163,45.4239493 116.470515,56.9449717 C109.526804,68.4607503 98.3071667,76.7588793 85.2642891,80.0317807 C86.9677024,72.2080243 87.2375374,64.1341 86.0535756,56.215955 L86.0533659,56.2169961 Z" id="Shape"></path>
                    <path d="M27.5013954,96 C24.8714875,96 22.5003593,97.58424 21.495135,100.010965 C20.4898588,102.442888 21.043265,105.240296 22.9014612,107.098518 C24.7647783,108.956741 27.5571546,109.510166 29.989111,108.504826 C32.4159984,107.499563 34,105.128519 34,102.498647 C34,98.9091841 31.0907765,96 27.5012655,96 L27.5013954,96 Z M27.5013954,104.666725 C26.6230525,104.666725 25.8309607,104.13871 25.495886,103.331513 C25.1607982,102.519182 25.3486506,101.590136 25.968058,100.970685 C26.5874654,100.351286 27.5165765,100.163436 28.3289183,100.498519 C29.1361781,100.833602 29.6641483,101.625631 29.6641483,102.498932 C29.6641483,103.077715 29.4356788,103.626045 29.0295079,104.032223 C28.623337,104.438402 28.0750127,104.666855 27.5012655,104.666855 L27.5013954,104.666725 Z" id="Shape"></path>
                    <path d="M115.501303,78 C112.871358,78 110.500196,79.5842625 109.494958,82.0110215 C108.489667,84.4429795 109.043081,87.2353575 110.906373,89.0936069 C112.764647,90.9569252 115.557063,91.5103578 117.989054,90.505003 C120.415976,89.4997261 122,87.1286483 122,84.4987387 C122,80.9092254 119.090735,78 115.501173,78 L115.501303,78 Z M115.501303,86.6668479 C114.622948,86.6668479 113.836044,86.1388254 113.500834,85.326548 C113.165742,84.5192877 113.348515,83.585146 113.967944,82.9656862 C114.58736,82.3462784 115.521554,82.1634949 116.328838,82.4985959 C117.141191,82.8336838 117.669156,83.6257241 117.669156,84.4990376 C117.669156,85.0727593 117.440683,85.6261659 117.034506,86.03235 C116.62833,86.4385342 116.074916,86.6669909 115.501173,86.6669909 L115.501303,86.6668479 Z" id="Shape"></path>
                    <path d="M72.4986046,15 C75.1285125,15 77.4996407,13.4156017 78.504865,10.9886346 C79.5101412,8.55646814 78.956735,5.76385072 77.0985388,3.90544207 C75.2352217,2.04703342 72.4428454,1.48848394 70.010889,2.493925 C67.5840016,3.49928808 66,5.87056915 66,8.50070418 C66,12.0905252 68.9092235,15 72.4987345,15 L72.4986046,15 Z M72.4986046,6.33240911 C73.3769475,6.33240911 74.1690393,6.8604769 74.504114,7.67282388 C74.8392018,8.48015341 74.6513494,9.41437519 74.031942,10.0338881 C73.4125346,10.6533489 72.4783545,10.8361481 71.6710817,10.5010315 C70.8638219,10.1659148 70.3358517,9.37888903 70.3358517,8.50041821 C70.3358517,7.30210405 71.3055799,6.33225313 72.4987605,6.33225313 L72.4986046,6.33240911 Z" id="Shape"></path>
                </g>
            </g>
        </g>
    </g>
</svg>