<?xml version="1.0" encoding="UTF-8"?>
<svg width="147px" height="135px" viewBox="0 0 147 135" version="1.1" xmlns="http://www.w3.org/2000/svg" xmlns:xlink="http://www.w3.org/1999/xlink">
    <title>Group</title>
    <g id="App-Screens" stroke="none" stroke-width="1" fill="none" fill-rule="evenodd">
        <g id="screen/app/dashboard/orders" transform="translate(-122, -174)">
            <g id="Group" transform="translate(122, 174)">
                <circle id="Oval" fill-opacity="0.308429851" fill="#C9E4CA" cx="79.5" cy="67.5" r="67.5"></circle>
                <g id="np_coffee-orders_940871_000000" transform="translate(0, 2)" fill="#2B9348" fill-rule="nonzero">
                    <path d="M105.055936,50.7594801 L103.258685,50.7594801 L101.461434,41.8019142 C101.309225,41.0554504 100.71208,40.6064076 99.9627259,40.6064076 L68.4898543,40.6064076 L68.7884269,29.4094503 L73.1322827,29.4094503 C73.5830641,29.4094503 73.8816368,29.2578286 74.1802094,28.9604076 C74.4787821,28.6629865 74.6309909,28.2139437 74.6309909,27.9165227 L74.0338456,14.9292466 C74.0338456,14.1827827 73.2844915,13.4363189 72.5351374,13.4363189 L69.6899898,13.4363189 L67.2896588,1.1955066 C67.13745,0.449042776 66.5403047,0 65.7909507,0 L8.84004022,0 C8.09068613,0 7.49354085,0.449042776 7.34133205,1.1955066 L4.94100104,13.5821779 L2.09585345,13.5821779 C1.34649937,13.5821779 0.597145283,14.17702 0.597145283,15.0751056 L0,28.0623817 C0,28.5114245 0.152208802,28.8088455 0.450781443,29.1062666 C0.749354085,29.4036876 1.04792673,29.5553094 1.49870817,29.5553094 L5.84256393,29.5553094 L8.24289493,106.593362 C8.24289493,107.339825 8.99224902,108.086289 9.7416031,108.086289 L53.9534941,108.086289 L54.2520667,114.507072 C54.2520667,115.253536 55.0014208,116 55.7507749,116 L99.3601852,116 C100.109539,116 100.858893,115.405158 100.858893,114.507072 L102.656144,63.5952539 L105.501292,63.5952539 C105.952073,63.5952539 106.250646,63.4436322 106.549219,63.1462112 C106.847791,62.8487901 107,62.3997473 107,62.1023263 L106.549219,52.2466152 C106.555073,51.5059887 105.952073,50.7595249 105.05637,50.7595249 L105.055936,50.7594801 Z M100.261269,50.7594801 L54.8489123,50.7594801 L56.1954117,43.5922331 L98.7557263,43.5922331 L100.261269,50.7594801 Z M10.0345406,3.13210247 L64.890257,3.13210247 L66.9860505,13.582596 L7.93994606,13.582596 L10.0345406,3.13210247 Z M3.59474147,16.5684512 L71.334852,16.5684512 L71.7856335,26.5698721 L3.14330059,26.5757035 L3.59474147,16.5684512 Z M11.2347061,104.954246 L8.8343751,29.4091219 L66.0835285,29.4091219 L65.638592,40.6060792 L54.9953661,40.6060792 C54.246012,40.6060792 53.6488667,41.055122 53.4966579,41.8015858 L51.699407,50.7591516 L49.9021562,50.7591516 C49.1528021,50.7591516 48.403448,51.3539937 48.403448,52.2520793 L47.9526666,62.1077904 C47.9526666,62.5568332 48.1048754,62.8542542 48.403448,63.1516753 C48.7020207,63.4490963 49.0005933,63.600718 49.4513748,63.600718 L52.2965224,63.600718 L53.7952305,104.953321 L11.2347061,104.954246 Z M97.861537,112.862135 L57.0981735,112.862135 L55.3009227,63.5955227 L99.5128137,63.5955227 L97.861537,112.862135 Z M51.1033408,60.6096674 L51.4019135,53.7398115 L103.703831,53.7398115 L104.002404,60.6096674 L51.1033408,60.6096674 Z" id="Shape"></path>
                </g>
            </g>
        </g>
    </g>
</svg>