<?xml version="1.0" encoding="UTF-8"?>
<svg width="139px" height="47px" viewBox="0 0 139 47" version="1.1" xmlns="http://www.w3.org/2000/svg" xmlns:xlink="http://www.w3.org/1999/xlink">
    <title>play-store</title>
    <g id="Website" stroke="none" stroke-width="1" fill="none" fill-rule="evenodd">
        <g id="screens/home" transform="translate(-606, -2921)">
            <g id="App-Download" transform="translate(0, 2671)">
                <g id="Group-4" transform="translate(365, 100)">
                    <g id="play-store" transform="translate(242, 151)">
                        <rect id="Rectangle" fill="#FFF8E8" fill-rule="nonzero" x="0" y="0" width="137" height="45" rx="5.5"></rect>
                        <rect id="Rectangle" stroke="#FFF8E8" x="0" y="0" width="137" height="45" rx="5.5"></rect>
                        <path d="M20.1342992,22 L9,33.7734302 C9.00104292,33.7755517 9.00104292,33.7786781 9.00208585,33.7807996 C9.34406167,35.0591707 10.5153223,36 11.9062043,36 C12.4625067,36 12.9844269,35.8499318 13.4319673,35.5874241 L13.4674954,35.5665441 L26,28.3618194 L20.1342992,22 Z" id="Path" fill="#EA4335" fill-rule="nonzero"></path>
                        <path d="M31.4434527,20.2689133 L31.4330901,20.2613383 L26.0568583,17 L20,22.6405943 L26.0786083,29 L31.4258022,25.7714091 C32.3629874,25.2406915 33,24.2065262 33,23.0146839 C33,21.8293678 32.3724389,20.8006798 31.4434527,20.2689133 Z" id="Path" fill="#FBBC04" fill-rule="nonzero"></path>
                        <path d="M9.1058371,11 C9.03671513,11.2530592 9,11.5190018 9,11.793564 L9,33.2074589 C9,33.4820211 9.03671513,33.7479637 9.10692601,34 L21,22.1916434 L9.1058371,11 Z" id="Path" fill="#4285F4" fill-rule="nonzero"></path>
                        <path d="M20.2307261,23 L26,17.0027 L13.4667064,9.44743206 C13.0112736,9.16328803 12.4793043,9 11.9108453,9 C10.5182354,9 9.34343921,9.98522321 9.00105568,11.3220827 C9.00105568,11.3231677 9,11.3242527 9,11.3253494 L20.2307261,23 Z" id="Path" fill="#34A853" fill-rule="nonzero"></path>
                        <path d="M49.4117015,12.8489305 C49.4117015,14.052139 49.0669844,15.0107353 48.3776664,15.7245989 C47.6030695,16.5749064 46.584603,17 45.3220345,17 C44.1137238,17 43.091307,16.5668449 42.2547842,15.7005348 C41.4182614,14.8342246 41,13.7673396 41,12.5 C41,11.2326604 41.4182614,10.1657754 42.2547842,9.29946524 C43.091307,8.43315508 44.1137238,8 45.3220345,8 C45.9339741,8 46.5109425,8.11229545 47.0531719,8.3368984 C47.5954014,8.56150134 48.0407336,8.87834225 48.3892847,9.28743316 L47.6224722,10.0815508 C47.366868,9.76069118 47.0337692,9.5120361 46.6232922,9.3355615 C46.2204832,9.15107353 45.7867694,9.05882353 45.3220345,9.05882353 C44.4158014,9.05882353 43.6489889,9.38368984 43.0215968,10.0334225 C42.401989,10.6911805 42.092127,11.513369 42.092127,12.5 C42.092127,13.486631 42.401989,14.3087834 43.0215968,14.9665775 C43.6489889,15.6163102 44.4158014,15.9411765 45.3220345,15.9411765 C46.150773,15.9411765 46.8402072,15.7005348 47.3901047,15.2192513 C47.9400023,14.7379679 48.2576486,14.0762032 48.3428112,13.2339572 L45.3220345,13.2339572 L45.3220345,12.1991979 L49.3536096,12.1991979 C49.3922988,12.4238369 49.4117015,12.6404144 49.4117015,12.8489305 Z M55.5668827,8.19251337 L55.5668827,9.2513369 L51.7792934,9.2513369 L51.7792934,11.9826203 L55.1950948,11.9826203 L55.1950948,13.0173797 L51.7792934,13.0173797 L51.7792934,15.7486631 L55.5668827,15.7486631 L55.5668827,16.8074866 L50.7104031,16.8074866 L50.7104031,8.19251337 L55.5668827,8.19251337 Z M59.8423275,9.2513369 L59.8423275,16.8074866 L58.7734373,16.8074866 L58.7734373,9.2513369 L56.4497628,9.2513369 L56.4497628,8.19251337 L62.166002,8.19251337 L62.166002,9.2513369 L59.8423275,9.2513369 Z M66.9036256,16.8074866 L65.8347354,16.8074866 L65.8347354,8.19251337 L66.9036256,8.19251337 L66.9036256,16.8074866 Z M71.4153881,9.2513369 L71.4153881,16.8074866 L70.3464978,16.8074866 L70.3464978,9.2513369 L68.0228234,9.2513369 L68.0228234,8.19251337 L73.7390625,8.19251337 L73.7390625,9.2513369 L71.4153881,9.2513369 Z M85.3252519,12.5 C85.3252519,13.7754011 84.9147748,14.8422861 84.0937044,15.7005348 C83.2649659,16.5668449 82.2502173,17 81.0496909,17 C79.8413802,17 78.8267477,16.5668449 78.0056774,15.7005348 C77.184607,14.8422861 76.7741299,13.7754011 76.7741299,12.5 C76.7741299,11.2245989 77.184607,10.15775 78.0056774,9.29946524 C78.8267477,8.43315508 79.8413802,8 81.0496909,8 C82.2580016,8 83.272634,8.43716176 84.0937044,9.31149733 C84.9147748,10.1697821 85.3252519,11.2326604 85.3252519,12.5 Z M77.8662569,12.5 C77.8662569,13.4946925 78.1683346,14.3168449 78.7724899,14.9665775 C79.3844296,15.6163102 80.1434579,15.9411765 81.0496909,15.9411765 C81.9559239,15.9411765 82.7111181,15.6163102 83.3152735,14.9665775 C83.9272131,14.3249064 84.2331249,13.5026337 84.2331249,12.5 C84.2331249,11.4973663 83.9272131,10.6751297 83.3152735,10.0334225 C82.7111181,9.38368984 81.9559239,9.05882353 81.0496909,9.05882353 C80.1434579,9.05882353 79.3844296,9.38368984 78.7724899,10.0334225 C78.1683346,10.6831551 77.8662569,11.5053075 77.8662569,12.5 Z M87.6555488,16.8074866 L86.5866585,16.8074866 L86.5866585,8.19251337 L87.8879162,8.19251337 L91.9311098,14.894385 L91.9775832,14.894385 L91.9311098,13.2339572 L91.9311098,8.19251337 L93,8.19251337 L93,16.8074866 L91.8846363,16.8074866 L87.6555488,9.78074866 L87.6090753,9.78074866 L87.6555488,11.4411765 L87.6555488,16.8074866 Z" id="Shape" fill="#000000" fill-rule="nonzero"></path>
                        <path d="M107.068088,35.9309933 L108.939007,35.9309933 L108.939007,23.45118 L107.068088,23.45118 L107.068088,35.9309933 Z M123.919797,27.9465467 L121.77527,33.3573067 L121.710946,33.3573067 L119.484865,27.9465467 L117.468986,27.9465467 L120.806959,35.5087133 L118.904797,39.7155333 L120.855203,39.7155333 L126,27.9465467 L123.919797,27.9465467 Z M113.309615,34.5133067 C112.695892,34.5133067 111.841642,34.2088933 111.841642,33.4531867 C111.841642,32.49076 112.90552,32.1214067 113.824899,32.1214067 C114.646757,32.1214067 115.035,32.2980933 115.534662,32.5387 C115.388784,33.6947 114.389459,34.5133067 113.309615,34.5133067 Z M113.535209,27.67398 C112.180608,27.67398 110.776845,28.26796 110.197351,29.58478 L111.857723,30.27464 C112.212655,29.58478 112.873358,29.3591333 113.567257,29.3591333 C114.535338,29.3591333 115.518581,29.9371333 115.534662,30.9654067 L115.534662,31.0932467 C115.195811,30.9004667 114.470669,30.6120333 113.583338,30.6120333 C111.793514,30.6120333 109.970723,31.5913467 109.970723,33.4212267 C109.970723,35.09142 111.438581,36.16752 113.082986,36.16752 C114.341331,36.16752 115.035,35.6055 115.470338,34.94658 L115.534662,34.94658 L115.534662,35.9100267 L117.340338,35.9100267 L117.340338,31.1250933 C117.340338,28.90988 115.679392,27.67398 113.535209,27.67398 Z M101.972682,29.4660067 L99.311723,29.4660067 L99.311723,25.18824 L101.972682,25.18824 C103.371392,25.18824 104.165453,26.3412933 104.165453,27.3266133 C104.165453,28.2939133 103.371392,29.4660067 101.972682,29.4660067 Z M101.924554,23.45118 L97.441723,23.45118 L97.441723,35.9309933 L99.311723,35.9309933 L99.311723,31.2029533 L101.924554,31.2029533 C103.99798,31.2029533 106.036372,29.70752 106.036372,27.3266133 C106.036372,24.9457067 103.99798,23.45118 101.924554,23.45118 Z M77.4791284,34.5153467 C76.1867838,34.5153467 75.1048716,33.4382267 75.1048716,31.95866 C75.1048716,30.4632267 76.1867838,29.3691067 77.4791284,29.3691067 C78.7555068,29.3691067 79.7560946,30.4632267 79.7560946,31.95866 C79.7560946,33.4382267 78.7555068,34.5153467 77.4791284,34.5153467 Z M79.6277905,28.64536 L79.5626622,28.64536 C79.1424865,28.14726 78.3354459,27.6969867 77.3177432,27.6969867 C75.1850473,27.6969867 73.2309662,29.5617733 73.2309662,31.95866 C73.2309662,34.33866 75.1850473,36.1884867 77.3177432,36.1884867 C78.3354459,36.1884867 79.1424865,35.7382133 79.5626622,35.2231133 L79.6277905,35.2231133 L79.6277905,35.8351133 C79.6277905,37.4592933 78.7555068,38.32788 77.3497905,38.32788 C76.20275,38.32788 75.4918514,37.5072333 75.2011284,36.8154467 L73.5698176,37.4912533 C74.0381216,38.6173333 75.2823378,40 77.3497905,40 C79.5465811,40 81.4045203,38.7132133 81.4045203,35.5775067 L81.4045203,27.9535733 L79.6277905,27.9535733 L79.6277905,28.64536 Z M82.6968649,35.9309933 L84.5708851,35.9309933 L84.5708851,23.4502733 L82.6968649,23.4502733 L82.6968649,35.9309933 Z M87.3321216,31.8139333 C87.2839932,30.1737733 88.6085,29.3371467 89.5609595,29.3371467 C90.3049392,29.3371467 90.9346284,29.7066133 91.1441419,30.2376933 L87.3321216,31.8139333 Z M93.1473851,30.3984 C92.7924527,29.4500267 91.7096216,27.6969867 89.4968649,27.6969867 C87.3000743,27.6969867 85.4752162,29.4170467 85.4752162,31.9427933 C85.4752162,34.32268 87.2839932,36.1884867 89.7063784,36.1884867 C91.6614932,36.1884867 92.7924527,34.9984867 93.2607568,34.3067 L91.8069122,33.3413267 C91.3226419,34.0492067 90.6598716,34.5153467 89.7063784,34.5153467 C88.7538041,34.5153467 88.0750676,34.0810533 87.6389257,33.22958 L93.3409324,30.88052 L93.1473851,30.3984 Z M47.7197095,28.9997533 L47.7197095,30.8007333 L52.0481622,30.8007333 C51.9188243,31.8139333 51.5798581,32.55366 51.0635405,33.0678533 C50.4328176,33.69572 49.447277,34.38762 47.7197095,34.38762 C45.0536959,34.38762 42.9701622,32.2482267 42.9701622,29.5947533 C42.9701622,26.94026 45.0536959,24.8018867 47.7197095,24.8018867 C49.157473,24.8018867 50.207223,25.3649267 50.9823311,26.0887867 L52.2587095,24.8178667 C51.1757635,23.7886867 49.7390338,23 47.7197095,23 C44.0690743,23 41,25.9599267 41,29.5947533 C41,33.22958 44.0690743,36.1884867 47.7197095,36.1884867 C49.6898716,36.1884867 51.1757635,35.54464 52.3388851,34.33866 C53.5350878,33.14866 53.9059865,31.47654 53.9059865,30.1248133 C53.9059865,29.7066133 53.8739392,29.3211667 53.8088108,28.9997533 L47.7197095,28.9997533 Z M58.8279459,34.5153467 C57.5356014,34.5153467 56.4206081,33.4542067 56.4206081,31.9427933 C56.4206081,30.41438 57.5356014,29.3691067 58.8279459,29.3691067 C60.1193716,29.3691067 61.2343649,30.41438 61.2343649,31.9427933 C61.2343649,33.4542067 60.1193716,34.5153467 58.8279459,34.5153467 Z M58.8279459,27.6969867 C56.4687365,27.6969867 54.5467027,29.4819867 54.5467027,31.9427933 C54.5467027,34.38762 56.4687365,36.1884867 58.8279459,36.1884867 C61.1862365,36.1884867 63.1082703,34.38762 63.1082703,31.9427933 C63.1082703,29.4819867 61.1862365,27.6969867 58.8279459,27.6969867 Z M68.1655405,34.5153467 C66.8731959,34.5153467 65.7582027,33.4542067 65.7582027,31.9427933 C65.7582027,30.41438 66.8731959,29.3691067 68.1655405,29.3691067 C69.458,29.3691067 70.5719595,30.41438 70.5719595,31.9427933 C70.5719595,33.4542067 69.458,34.5153467 68.1655405,34.5153467 Z M68.1655405,27.6969867 C65.8073649,27.6969867 63.8853311,29.4819867 63.8853311,31.9427933 C63.8853311,34.38762 65.8073649,36.1884867 68.1655405,36.1884867 C70.5238311,36.1884867 72.4458649,34.38762 72.4458649,31.9427933 C72.4458649,29.4819867 70.5238311,27.6969867 68.1655405,27.6969867 Z" id="Shape" fill="#000000" fill-rule="nonzero"></path>
                    </g>
                </g>
            </g>
        </g>
    </g>
</svg>