<?xml version="1.0" encoding="UTF-8"?>
<svg class="nektaro-points" width="145px" height="145px" viewBox="0 0 145 145" version="1.1" xmlns="http://www.w3.org/2000/svg" xmlns:xlink="http://www.w3.org/1999/xlink">
    <g id="App-Screens" stroke="none" stroke-width="1" fill="none" fill-rule="evenodd">
        <g id="screen/app/dashboard/home-return-customer" transform="translate(-123, -166)" fill-rule="nonzero">
            <g id="SUBMARK-NEKTARO" transform="translate(123, 166)">
                <path d="M72.5,0 C112.375,0 145,32.335 145,72.5 C145,112.375 112.375,145 72.5,145 C32.335,145 0,112.375 0,72.5 C0,32.335 32.335,0 72.5,0 Z M73.0317848,16.6625917 C41.8765753,16.6625917 16.6625917,41.7316673 16.6625917,73.0317848 C16.6625917,104.331902 41.7316673,129.400978 73.0317848,129.400978 C104.331902,129.400978 129.400978,104.331902 129.400978,73.0317848 C129.400978,41.7316673 104.186994,16.6625917 73.0317848,16.6625917 Z" id="Combined-Shape" fill="#004B23"></path>
                <path d="M23.4042905,72.1141339 C23.2586972,65.1068719 25.8807843,57.0782396 30.5432411,57.0782396 C33.0197349,57.0782396 59.3899384,67.4426664 59.3899384,67.4426664 C64.3435331,69.4865019 64.3435331,75.3256841 59.3899384,76.7854797 C59.3899384,76.7854797 32.5829065,86.8581907 30.5432411,86.8581907 C25.8809057,86.8581907 23.2587215,79.1215175 23.4042905,72.1142555 L23.4042905,72.1141339 Z" id="NEKT_3" fill="#C9E4CA"></path>
                <path d="M37.1690271,106.858378 C32.1997638,102.144269 28.5459832,94.5737456 31.6150371,91.5740097 C33.0765493,89.7167923 59.5299204,78.5751543 59.5299204,78.5751543 C64.4991837,76.4324859 68.5910525,80.5750973 66.3987842,85.2886108 C66.3987842,85.2886108 54.4146276,110.857788 53.0990231,112.286234 C49.5917591,115.428576 41.9921392,111.71476 37.1685399,106.857902 L37.1690271,106.858378 Z" id="NEKT_4" fill="#C9E4CA"></path>
                <path d="M38.1416219,37.156468 C42.8557306,32.1965474 50.4262544,28.5496363 53.4259903,31.61292 C55.2832077,33.0716845 66.4248457,59.4753207 66.4248457,59.4753207 C68.5675141,64.5809962 64.4249027,68.6657798 59.7113892,66.3312704 C59.7113892,66.3312704 34.1422121,54.3696452 32.7137665,53.0565141 C29.5714241,49.5558441 33.28524,41.9705122 38.142098,37.1559818 L38.1416219,37.156468 Z" id="NEKT_2" fill="#C9E4CA"></path>
                <path d="M72.1141339,121.59571 C65.1068719,121.741303 57.0782396,119.119216 57.0782396,114.456759 C57.0782396,111.980265 67.4426664,85.6100616 67.4426664,85.6100616 C69.4865019,80.6564669 75.0333601,80.6564669 76.7854797,85.6100616 C76.7854797,85.6100616 86.8581907,112.417093 86.8581907,114.456759 C86.8581907,119.119094 79.1215175,121.741278 72.1142555,121.59571 L72.1141339,121.59571 Z" id="NEKT_5" fill="#C9E4CA"></path>
                <path d="M72.8858661,23.4042747 C79.8931281,23.2590807 87.9217604,25.8739779 87.9217604,30.5236499 C87.9217604,32.9933531 77.5573336,59.2912483 77.5573336,59.2912483 C75.5134981,64.3764299 69.6743159,64.3764299 68.2145203,59.2912483 C68.2145203,59.2912483 58.1418093,32.7030134 58.1418093,30.5236499 C58.1418093,25.8740989 65.8784825,23.2591049 72.8857445,23.4042747 L72.8858661,23.4042747 Z" id="NEKT_1" fill="#C9E4CA"></path>
                <path d="M107.843532,37.2553003 C112.803453,42.0962203 116.450364,49.8703942 113.38708,52.9508241 C111.928316,54.8580013 85.5246793,66.2993536 85.5246793,66.2993536 C80.4190038,68.7927905 76.3342202,64.2456115 78.6687296,59.4053026 C78.6687296,59.4053026 90.6303548,33.1483049 91.9434859,31.6814335 C95.4441559,28.454561 103.029488,32.2682799 107.844018,37.2557892 L107.843532,37.2553003 Z" id="NEKT_0" fill="#C9E4CA"></path>
                <path d="M92.0491759,113.384963 C90.1419987,111.923451 78.7006464,85.4700796 78.7006464,85.4700796 C76.2072095,80.5008163 80.7543885,76.4089475 85.5946974,78.6012158 C85.5946974,78.6012158 111.851695,90.5853724 113.318566,91.9009769 C116.545439,95.4082409 112.73172,103.007861 107.744211,107.83146 C102.90378,112.800236 95.1296058,116.454017 92.0491759,113.384963 Z" id="NEKT_6" fill="#C9E4CA"></path>
            </g>
        </g>
    </g>
</svg>
