<?xml version="1.0" standalone="no"?>
<!DOCTYPE svg PUBLIC "-//W3C//DTD SVG 20010904//EN"
 "http://www.w3.org/TR/2001/REC-SVG-20010904/DTD/svg10.dtd">
<svg version="1.0" xmlns="http://www.w3.org/2000/svg"
 width="1080.000000pt" height="1080.000000pt" viewBox="0 0 1080.000000 1080.000000"
 preserveAspectRatio="xMidYMid meet">
<metadata>
Created by potrace 1.14, written by Peter Selinger 2001-2017
</metadata>
<g transform="translate(0.000000,1080.000000) scale(0.100000,-0.100000)"
fill="#000000" stroke="none">
<path d="M0 5400 l0 -5400 5400 0 5400 0 0 1785 c0 1559 -2 1791 -15 1842 -8
32 -20 98 -26 148 -5 49 -21 126 -34 170 -54 184 -74 276 -100 445 -27 187
-56 356 -75 445 -64 301 -136 690 -155 840 -9 66 -22 170 -30 230 -8 61 -21
227 -30 370 -60 986 -87 1123 -320 1610 -70 146 -118 249 -145 310 -35 81
-100 265 -100 286 0 35 -25 18 -65 -44 -62 -98 -252 -350 -371 -492 -141 -168
-373 -400 -499 -499 -126 -99 -131 -106 -144 -169 -34 -161 -55 -1289 -30
-1557 5 -58 12 -286 15 -506 5 -332 3 -430 -10 -565 -37 -359 -82 -591 -241
-1229 -64 -256 -136 -559 -161 -675 -98 -465 -177 -745 -229 -816 -14 -18 -25
-31 -25 -28 0 3 16 64 35 135 41 146 89 343 135 549 62 278 80 354 140 610
107 458 119 509 129 565 6 30 27 125 46 210 70 304 99 473 109 640 6 109 4
106 -53 -104 -193 -695 -648 -1338 -1261 -1776 -457 -327 -986 -527 -1560
-591 -257 -29 -655 -13 -930 37 -630 114 -1248 435 -1705 889 -175 173 -283
305 -420 510 -259 390 -408 748 -499 1205 -74 367 -76 877 -5 1248 112 586
395 1147 806 1597 514 562 1220 928 1993 1031 71 10 234 20 380 23 l255 6 -90
13 c-149 22 -509 26 -810 9 -294 -18 -462 -22 -625 -17 l-105 3 75 9 c262 30
802 81 950 89 114 6 226 6 320 0 134 -10 416 -52 570 -86 122 -26 445 -74 610
-89 654 -61 961 -101 1185 -156 412 -100 686 -246 1072 -571 58 -49 109 -89
113 -89 15 0 236 242 319 348 44 57 129 172 188 255 132 188 237 317 420 517
78 85 143 162 143 171 0 14 -37 115 -109 298 -19 46 -128 270 -159 326 -255
457 -483 685 -812 813 -187 73 -557 137 -910 157 -176 11 -656 54 -942 85
l-271 30 -3368 0 -3369 0 0 -5400z"/>
<path d="M7465 10790 c61 -4 256 -13 435 -19 179 -6 386 -16 460 -22 272 -20
547 -79 665 -142 178 -94 290 -181 415 -322 245 -277 422 -600 546 -999 19
-60 36 -112 39 -114 2 -2 42 36 88 84 86 90 108 109 316 274 63 50 173 147
243 215 l128 124 0 465 0 466 -1722 -1 c-948 -1 -1673 -5 -1613 -9z"/>
<path d="M10720 9464 c-74 -75 -210 -184 -228 -184 -11 0 -271 -271 -403 -420
-46 -52 -114 -126 -150 -164 l-65 -69 36 -111 c40 -120 113 -304 180 -456 138
-310 177 -414 229 -595 86 -300 100 -407 111 -856 5 -201 14 -419 20 -485 25
-277 67 -601 116 -899 35 -211 68 -417 105 -670 43 -299 51 -345 80 -490 11
-55 26 -145 33 -200 12 -86 14 317 15 2788 0 1588 0 2887 -2 2887 -1 0 -36
-34 -77 -76z"/>
<path d="M6435 8516 c445 -151 833 -380 1188 -700 105 -95 287 -301 405 -458
56 -76 99 -125 106 -121 100 59 550 388 619 452 20 19 37 41 37 48 0 7 -19 22
-42 34 -24 12 -97 61 -163 109 -66 48 -146 104 -177 124 l-58 37 0 -61 c0 -61
0 -61 -27 -58 -28 3 -28 4 -27 68 2 68 -3 63 -26 -28 -9 -36 -15 -43 -33 -40
-17 2 -25 15 -39 63 l-16 60 -1 -63 c-1 -63 -1 -63 -28 -60 l-28 3 2 117 1
116 -51 22 c-185 78 -375 138 -589 184 -191 41 -812 148 -991 171 -67 8 -138
17 -157 20 -19 3 24 -15 95 -39z m1647 -381 c4 -19 1 -25 -13 -25 -16 0 -19
-11 -21 -92 l-3 -93 -30 0 -30 0 -3 93 c-2 84 -4 92 -22 92 -15 0 -20 7 -20
25 0 24 2 25 69 25 65 0 69 -1 73 -25z"/>
<path d="M8224 8088 c3 -13 6 -29 6 -36 0 -7 5 -10 10 -7 16 10 12 52 -6 59
-13 5 -15 2 -10 -16z"/>
<path d="M5140 7909 c-514 -62 -969 -258 -1371 -592 -189 -157 -323 -307 -467
-523 -184 -277 -302 -557 -377 -902 -15 -68 -24 -126 -21 -129 7 -8 157 22
253 51 l77 23 39 77 c44 87 111 159 163 176 51 17 114 7 243 -36 l110 -38 91
29 c49 17 90 32 90 35 -1 3 -83 46 -183 95 -172 85 -183 92 -211 138 -26 42
-30 57 -30 125 0 64 6 92 35 169 56 143 127 249 264 388 66 67 148 141 181
163 136 90 268 142 364 142 74 0 117 -17 154 -61 33 -38 203 -384 321 -651
l79 -177 45 6 c25 3 47 7 49 8 2 1 -35 108 -82 238 -131 364 -197 567 -203
627 -4 45 0 63 19 100 52 98 213 182 414 216 136 23 423 15 543 -15 228 -58
365 -168 364 -290 0 -54 -69 -263 -207 -630 -53 -140 -96 -259 -96 -264 0 -4
16 -7 36 -5 l37 3 156 330 c170 360 231 477 264 514 100 109 367 41 609 -156
126 -103 268 -272 324 -387 l28 -55 30 23 c17 12 76 53 131 91 55 37 102 70
104 71 12 10 -163 218 -289 344 -221 222 -405 352 -691 489 -231 111 -435 175
-704 222 -95 17 -171 22 -365 24 -135 2 -279 -1 -320 -6z"/>
<path d="M8555 7240 c-17 -19 -147 -108 -257 -176 -27 -16 -48 -32 -48 -36 0
-4 25 -53 55 -110 73 -139 148 -315 199 -472 l43 -129 7 369 c3 227 11 406 20
464 7 52 10 98 7 103 -4 4 -16 -2 -26 -13z"/>
<path d="M7463 6536 c-137 -93 -163 -115 -163 -136 -1 -39 -34 -103 -68 -132
-17 -14 -127 -74 -244 -133 -251 -127 -250 -126 -583 -460 -132 -132 -269
-265 -304 -295 -71 -60 -96 -104 -106 -193 l-7 -57 103 -49 c57 -27 270 -127
474 -221 428 -200 617 -292 662 -326 l32 -25 6 23 c2 13 12 77 21 143 37 277
67 423 144 685 49 168 78 283 89 350 6 36 17 102 25 146 8 45 20 122 26 170
14 119 69 444 85 508 11 42 11 55 -1 78 -8 15 -17 28 -21 31 -5 2 -81 -46
-170 -107z"/>
<path d="M7730 6417 c0 -8 -18 -133 -39 -278 -59 -392 -102 -569 -210 -869
-63 -174 -88 -281 -127 -549 -19 -135 -37 -248 -39 -251 -2 -3 -8 -50 -14
-103 -13 -116 -50 -219 -117 -327 -68 -110 -73 -122 -178 -405 -53 -143 -103
-278 -111 -299 -8 -22 -13 -41 -11 -44 8 -8 199 145 299 238 294 276 540 670
667 1067 151 471 158 1004 20 1478 -61 209 -140 401 -140 342z"/>
<path d="M4983 6318 c8 -20 105 -245 135 -313 16 -38 27 -84 30 -125 3 -56 0
-72 -25 -120 -23 -44 -39 -60 -83 -83 -87 -46 -139 -37 -331 53 -85 40 -228
108 -319 150 -91 42 -203 96 -250 119 l-85 41 -85 -29 c-47 -16 -78 -31 -70
-34 393 -142 912 -346 961 -378 26 -16 60 -49 75 -72 26 -37 29 -51 29 -118 0
-68 -3 -79 -29 -113 -47 -62 -14 -48 -701 -301 -93 -34 -227 -82 -297 -106
-70 -24 -126 -45 -124 -46 1 -2 47 2 102 7 54 5 137 10 184 10 66 0 97 6 140
24 30 13 161 69 289 125 129 56 261 111 293 122 171 57 315 -18 326 -171 l4
-60 37 6 c46 8 110 46 175 105 78 69 208 175 345 279 68 52 165 128 215 169
95 78 382 359 356 349 -8 -4 -93 -41 -189 -83 -171 -77 -174 -77 -241 -73 -81
6 -124 30 -166 90 -26 38 -29 49 -29 127 0 86 0 86 73 244 41 87 72 160 70
162 -1 2 -15 6 -30 10 -24 6 -29 3 -38 -21 -114 -307 -152 -374 -233 -415 -61
-32 -153 -24 -204 17 -57 47 -86 106 -183 377 l-32 87 -50 0 c-36 0 -49 -3
-45 -12z"/>
<path d="M3040 5746 l-145 -31 -8 -60 c-13 -93 -11 -448 2 -560 66 -559 304
-1080 661 -1448 l95 -98 85 44 c70 36 190 107 209 124 3 2 -13 18 -35 35 -141
115 -267 265 -334 398 -54 108 -73 179 -68 260 7 121 46 154 348 297 l155 73
-55 0 c-129 0 -432 -56 -568 -104 -40 -14 -45 -14 -78 3 l-36 19 92 30 c91 29
91 29 61 42 -44 18 -114 98 -151 170 -18 35 -43 107 -58 159 -22 83 -26 123
-30 293 -3 156 -1 213 12 277 9 45 19 88 22 96 8 20 -1 19 -176 -19z"/>
<path d="M5874 5189 c-22 -17 -41 -33 -43 -35 -2 -2 16 -4 41 -4 45 0 46 1 50
35 2 19 1 35 -3 35 -3 0 -24 -14 -45 -31z"/>
<path d="M5592 4975 c-34 -25 -62 -48 -62 -52 0 -3 11 -20 24 -37 20 -27 126
-295 166 -418 6 -21 13 -38 16 -38 6 0 41 73 48 102 4 19 -2 45 -20 85 -122
271 -133 304 -116 367 6 20 9 36 8 36 -1 0 -30 -20 -64 -45z"/>
<path d="M4998 4489 c-48 -48 -75 -97 -249 -449 -108 -217 -208 -409 -223
-427 -76 -90 -237 -84 -437 17 -32 17 -63 30 -68 30 -5 0 -38 -17 -73 -39 -35
-21 -103 -60 -152 -86 l-88 -48 44 -38 c270 -241 650 -441 1012 -534 159 -40
395 -80 406 -69 5 5 34 68 65 139 31 72 63 144 70 161 l14 31 -77 7 c-317 29
-542 162 -542 320 0 48 87 306 241 714 65 173 117 318 114 320 -2 3 -28 -20
-57 -49z"/>
<path d="M5807 4370 l-26 -70 88 -248 c90 -249 163 -470 175 -529 12 -54 -11
-111 -68 -168 -95 -96 -281 -160 -495 -172 l-114 -6 -65 -136 c-36 -75 -74
-149 -85 -164 -10 -16 -16 -31 -12 -35 4 -4 85 -8 182 -10 427 -8 842 90 1219
288 62 32 136 74 167 93 51 33 56 40 82 113 25 70 227 551 242 578 3 6 -34
-30 -83 -79 -129 -132 -235 -208 -374 -270 -159 -71 -277 -72 -355 -3 -40 34
-197 341 -349 678 -48 107 -91 199 -95 203 -4 4 -20 -24 -34 -63z"/>
</g>
</svg>
